<?xml version="1.0" encoding="UTF-8"?>
<svg version="1.1" xmlns="http://www.w3.org/2000/svg" width="1200" height="615">
<path d="M0 0 C27.90024514 24.76071863 45.57177012 56.80674802 50.41796875 93.9609375 C50.74796875 93.9609375 51.07796875 93.9609375 51.41796875 93.9609375 C51.74667969 92.10855469 51.74667969 92.10855469 52.08203125 90.21875 C56.83320229 64.39325592 65.93130667 40.01577272 83.41796875 19.9609375 C84.17851563 19.07535156 84.9390625 18.18976563 85.72265625 17.27734375 C87.90922742 14.79191596 90.1472704 12.36949967 92.41796875 9.9609375 C93.07796875 9.23648438 93.73796875 8.51203125 94.41796875 7.765625 C119.45275653 -18.6915939 156.55242437 -32.83624061 192.55859375 -34.2421875 C231.67470594 -34.989599 269.36801326 -21.59488256 297.88696289 5.47387695 C299.40987287 6.95746128 300.91635188 8.45582966 302.41796875 9.9609375 C303.34996094 10.88132813 304.28195312 11.80171875 305.2421875 12.75 C338.03546796 46.71279831 345.03566988 89.47319525 344.60546875 134.8359375 C344.54359375 144.1171875 344.48171875 153.3984375 344.41796875 162.9609375 C311.74796875 162.9609375 279.07796875 162.9609375 245.41796875 162.9609375 C245.10546875 135.6484375 245.10546875 135.6484375 245.0300293 127.0925293 C244.99770671 124.82338865 244.96432843 122.55426269 244.9296875 120.28515625 C244.9234436 119.13229126 244.91719971 117.97942627 244.9107666 116.79162598 C244.64709314 101.77502309 240.26500419 89.22674295 229.8828125 78.22265625 C219.16173551 68.38509115 206.95128004 65.43234974 192.78515625 65.6875 C180.06779805 66.24378115 169.54531709 73.03684995 160.9453125 82.08203125 C134.79619499 114.25012721 149.57710905 194.09206619 149.41796875 210.9609375 C246.10796875 210.9609375 342.79796875 210.9609375 442.41796875 210.9609375 C442.41796875 243.3009375 442.41796875 275.6409375 442.41796875 308.9609375 C345.72796875 308.9609375 249.03796875 308.9609375 149.41796875 308.9609375 C149.41796875 389.1509375 149.41796875 469.3409375 149.41796875 551.9609375 C116.74796875 551.9609375 84.07796875 551.9609375 50.41796875 551.9609375 C50.41796875 471.7709375 50.41796875 391.5809375 50.41796875 308.9609375 C-13.60203125 308.9609375 -77.62203125 308.9609375 -143.58203125 308.9609375 C-143.58203125 389.4809375 -143.58203125 470.0009375 -143.58203125 552.9609375 C-176.25203125 552.9609375 -208.92203125 552.9609375 -242.58203125 552.9609375 C-242.58203125 472.4409375 -242.58203125 391.9209375 -242.58203125 308.9609375 C-258.42203125 308.9609375 -274.26203125 308.9609375 -290.58203125 308.9609375 C-290.5663208 312.31483643 -290.55061035 315.66873535 -290.53442383 319.12426758 C-290.48445739 330.27207073 -290.45132125 341.419883 -290.42659473 352.56776905 C-290.41121752 359.31908243 -290.39030644 366.07028867 -290.35571289 372.8215332 C-290.32284093 379.3508739 -290.30512013 385.88010397 -290.29739952 392.4095211 C-290.29190556 394.88627549 -290.28117911 397.36302462 -290.26484108 399.83973122 C-290.15227045 417.63070504 -290.83423154 434.92694931 -296.26953125 452.0234375 C-296.52444336 452.84231445 -296.77935547 453.66119141 -297.04199219 454.50488281 C-303.14568058 473.4576739 -312.46189625 490.92137535 -325.58203125 505.9609375 C-326.401875 506.91355469 -327.22171875 507.86617187 -328.06640625 508.84765625 C-352.26431977 536.42750039 -387.87973737 555.3178602 -424.78125 557.8671875 C-425.70550781 557.898125 -426.62976563 557.9290625 -427.58203125 557.9609375 C-428.24154785 557.98671875 -428.90106445 558.0125 -429.58056641 558.0390625 C-469.19079944 559.40170221 -507.33187194 547.11180308 -536.58203125 519.9609375 C-537.15695312 519.42984375 -537.731875 518.89875 -538.32421875 518.3515625 C-561.48402773 496.70877158 -577.37605767 468.41434495 -582.58203125 436.9609375 C-582.74956909 435.96189896 -582.91710693 434.96286041 -583.08972168 433.93354797 C-584.98626622 420.93820571 -584.8362683 408.0076167 -584.77734375 394.8984375 C-584.77439611 392.69075624 -584.77236012 390.48307357 -584.77124023 388.27539062 C-584.76083644 380.17055133 -584.73291422 372.06574214 -584.70703125 363.9609375 C-584.66578125 345.8109375 -584.62453125 327.6609375 -584.58203125 308.9609375 C-632.43203125 308.9609375 -680.28203125 308.9609375 -729.58203125 308.9609375 C-729.58203125 276.2909375 -729.58203125 243.6209375 -729.58203125 209.9609375 C-649.06203125 209.9609375 -568.54203125 209.9609375 -485.58203125 209.9609375 C-485.33203125 313.7734375 -485.33203125 313.7734375 -485.28417969 346.53442383 C-485.2509537 356.23807011 -485.2509537 356.23807011 -485.21246338 365.94169617 C-485.19548037 370.25874826 -485.1895987 374.57566124 -485.19049072 378.89274597 C-485.19126377 384.40638525 -485.17290902 389.91965504 -485.1409421 395.43319833 C-485.13244861 397.4523373 -485.13056843 399.47151802 -485.1362071 401.49066699 C-485.20690681 416.15628349 -485.20690681 416.15628349 -480.58203125 429.9609375 C-480.10121094 430.95609375 -479.62039063 431.95125 -479.125 432.9765625 C-472.30057 444.22605518 -463.14953728 452.05708469 -450.19921875 455.42578125 C-436.75253131 458.17532779 -423.2358105 456.64052844 -411.58203125 448.9609375 C-400.18047155 440.43126388 -393.40026825 429.8516953 -391.06018162 415.8351965 C-390.54766092 411.68244864 -390.42917708 407.66574839 -390.42381287 403.48841858 C-390.4164059 402.24825608 -390.4164059 402.24825608 -390.4088493 400.9830398 C-390.39355477 398.22705774 -390.38513561 395.47109884 -390.37670898 392.71508789 C-390.36712413 390.73378294 -390.35711369 388.75248002 -390.34671021 386.7711792 C-390.31972092 381.40194319 -390.29867905 376.03269845 -390.27870822 370.66343236 C-390.25681174 365.04867166 -390.22944099 359.43393771 -390.20265198 353.81919861 C-390.15277457 343.19111459 -390.10781739 332.56301569 -390.06462961 321.93490261 C-390.0059733 307.57014147 -389.93971305 293.20541554 -389.87387943 278.84068584 C-389.77038222 256.2141268 -389.67704154 233.58753746 -389.58203125 210.9609375 C-341.07203125 210.9609375 -292.56203125 210.9609375 -242.58203125 210.9609375 C-242.70035473 176.40886339 -242.70035473 176.40886339 -242.85229492 141.85693359 C-242.86584473 135.10083008 -242.86584473 135.10083008 -242.86836243 131.91567993 C-242.87290191 129.73996121 -242.88330887 127.56424893 -242.89875793 125.38858032 C-243.14486098 88.83097142 -236.67137179 53.46861459 -213.58203125 23.9609375 C-212.88851562 23.04828125 -212.195 22.135625 -211.48046875 21.1953125 C-186.95477945 -10.01920116 -152.87416584 -28.57978585 -113.76953125 -34.2890625 C-72.82130902 -39.12710562 -31.28981823 -26.94858341 0 0 Z M-132.40234375 80.12109375 C-138.27090262 87.76704769 -143.71366749 97.75377078 -143.70228577 107.54205322 C-143.70366326 108.45438847 -143.70504076 109.36672371 -143.70646 110.30670547 C-143.70286189 111.30409618 -143.69926378 112.30148689 -143.69555664 113.32910156 C-143.69567718 114.40009975 -143.69579771 115.47109795 -143.6959219 116.57455063 C-143.69517542 120.04190903 -143.68755915 123.50921371 -143.6796875 126.9765625 C-143.67821726 129.11702448 -143.67719706 131.25748681 -143.67663574 133.39794922 C-143.67139233 141.33561746 -143.65743115 149.27327801 -143.64453125 157.2109375 C-143.62390625 174.9484375 -143.60328125 192.6859375 -143.58203125 210.9609375 C-79.56203125 210.9609375 -15.54203125 210.9609375 50.41796875 210.9609375 C50.41796875 195.1209375 50.41796875 179.2809375 50.41796875 162.9609375 C18.07796875 162.9609375 -14.26203125 162.9609375 -47.58203125 162.9609375 C-47.33203125 134.7734375 -47.33203125 134.7734375 -47.22167969 125.95629883 C-47.2099804 123.61019627 -47.19979153 121.26408549 -47.19140625 118.91796875 C-47.16071045 117.13924377 -47.16071045 117.13924377 -47.12939453 115.32458496 C-47.12333774 100.58992818 -51.82488613 88.001805 -61.89453125 77.1484375 C-72.16308713 67.63123936 -85.17234172 63.11394785 -99.09765625 63.578125 C-112.0721147 65.00356999 -123.38614591 70.73590561 -132.40234375 80.12109375 Z " fill="#fff" transform="translate(743.58203125,46.0390625)"/>
</svg>
